<?xml version="1.0" standalone="no"?>
<!DOCTYPE svg PUBLIC "-//W3C//DTD SVG 20010904//EN"
 "http://www.w3.org/TR/2001/REC-SVG-20010904/DTD/svg10.dtd">
<svg version="1.0" xmlns="http://www.w3.org/2000/svg"
 width="225.000000pt" height="225.000000pt" viewBox="0 0 225.000000 225.000000"
 preserveAspectRatio="xMidYMid meet">
<metadata>
Created by potrace 1.16, written by Peter Selinger 2001-2019
</metadata>
<g transform="translate(0.000000,225.000000) scale(0.100000,-0.100000)"
fill="#000000" stroke="none">
<path d="M1035 1986 c-40 -17 -95 -72 -111 -113 -30 -71 -13 -174 38 -229 19
-21 19 -22 -72 -250 -51 -126 -95 -232 -99 -237 -4 -4 -85 52 -181 125 l-174
133 -1 70 c0 58 -5 78 -28 117 -80 136 -284 142 -368 10 -60 -95 -46 -208 37
-281 26 -23 61 -43 81 -47 22 -4 38 -14 44 -28 5 -11 31 -113 59 -226 28 -113
55 -222 61 -242 l10 -38 293 0 294 0 12 30 c15 36 71 87 116 106 94 39 219
-12 270 -108 l15 -28 294 0 294 0 10 38 c6 20 33 129 61 242 28 113 54 215 59
226 6 14 22 24 44 28 20 4 55 24 81 47 115 102 92 284 -45 353 -71 35 -129 35
-200 -1 -78 -40 -114 -101 -114 -197 l-1 -71 -174 -133 c-96 -73 -177 -129
-181 -125 -4 5 -48 111 -99 237 -91 228 -91 229 -72 250 35 38 52 84 52 141 0
85 -44 156 -122 196 -44 22 -137 25 -183 5z m140 -151 c14 -13 25 -36 25 -50
0 -33 -42 -75 -75 -75 -33 0 -75 42 -75 75 0 14 11 37 25 50 13 14 36 25 50
25 14 0 37 -11 50 -25z m-902 -293 c24 -21 22 -77 -3 -102 -45 -45 -120 -11
-120 53 0 66 71 95 123 49z m1810 0 c24 -21 22 -77 -3 -102 -45 -45 -120 -11
-120 53 0 66 71 95 123 49z"/>
<path d="M370 604 c0 -13 31 -144 46 -196 4 -15 -1 -18 -34 -18 -52 0 -85 -27
-85 -68 0 -18 8 -41 18 -52 18 -20 29 -20 810 -20 779 0 792 0 810 20 25 27
22 80 -6 102 -12 11 -38 18 -61 18 -33 0 -38 3 -34 18 15 52 46 183 46 196 0
14 -31 16 -275 16 l-274 0 -15 -27 c-36 -70 -121 -123 -196 -123 -76 0 -163
55 -191 121 l-11 29 -274 0 c-243 0 -274 -2 -274 -16z"/>
</g>
</svg>
